<svg width="48" height="48" viewBox="0 0 53 53" fill="none" xmlns="http://www.w3.org/2000/svg">
<g clip-path="url(#clip0)">
<path d="M51.7039 51.273L36.8449 35.82C40.6349 32.019 42.9829 26.779 42.9829 21C42.9829 9.42 33.5629 0 21.9829 0C10.4029 0 0.98291 9.42 0.98291 21C0.98291 32.58 10.4029 42 21.9829 42C27.0659 42 31.7309 40.183 35.3669 37.168L50.2619 52.659C50.4579 52.864 50.7199 52.966 50.9829 52.966C51.2329 52.966 51.4819 52.873 51.6759 52.687C52.0739 52.304 52.0859 51.671 51.7039 51.273ZM21.9829 40C11.5059 40 2.98291 31.477 2.98291 21C2.98291 10.523 11.5059 2 21.9829 2C32.4599 2 40.9829 10.523 40.9829 21C40.9829 31.477 32.4589 40 21.9829 40Z" fill="black"/>
</g>
<defs>
<clipPath id="clip0">
<rect width="52.966" height="52.966" fill="white"/>
</clipPath>
</defs>
</svg>
