<svg width="48" height="48" viewBox="0 0 496 496" fill="none" xmlns="http://www.w3.org/2000/svg">
<path d="M248 320C208.296 320 176 287.696 176 248C176 231.408 181.792 215.208 192.304 202.392L179.928 192.24C167.08 207.912 160 227.712 160 248C160 296.52 199.48 336 248 336C268.28 336 288.08 328.92 303.752 316.072L293.608 303.696C280.792 314.208 264.592 320 248 320Z" fill="#182538"/>
<path d="M248 160C227.72 160 207.92 167.08 192.248 179.928L202.392 192.304C215.208 181.792 231.408 176 248 176C287.704 176 320 208.304 320 248C320 264.592 314.208 280.792 303.696 293.608L316.072 303.76C328.92 288.088 336 268.288 336 248C336 199.48 296.52 160 248 160Z" fill="#182538"/>
<path d="M120 448C80.296 448 48 415.696 48 376C48 359.408 53.792 343.208 64.304 330.392L51.928 320.24C39.08 335.912 32 355.712 32 376C32 424.52 71.48 464 120 464C140.28 464 160.08 456.92 175.752 444.072L165.608 431.696C152.792 442.208 136.592 448 120 448Z" fill="#182538"/>
<path d="M496 120C496 53.832 442.168 0 376 0C309.832 0 256 53.832 256 120C256 122.712 256.136 125.52 256.368 128.424C253.592 128.232 250.824 128 248 128C227.896 128 208.968 133.024 192.312 141.8L174.272 83.184C180.144 78.808 184 71.872 184 64C184 50.768 173.232 40 160 40C146.768 40 136 50.768 136 64C136 76.888 146.224 87.352 158.976 87.896L178.256 150.536C175.088 152.808 172.04 155.232 169.112 157.792L99.464 88.144C102.28 83.392 104 77.92 104 72C104 54.352 89.648 40 72 40C54.352 40 40 54.352 40 72C40 89.648 54.352 104 72 104C77.92 104 83.392 102.28 88.152 99.464L157.8 169.112C155.232 172.04 152.816 175.088 150.536 178.256L87.896 158.984C87.352 146.232 76.888 136 64 136C50.768 136 40 146.768 40 160C40 173.232 50.768 184 64 184C71.872 184 78.808 180.144 83.184 174.272L141.8 192.304C133.024 208.968 128 227.896 128 248C128 250.824 128.232 253.592 128.424 256.376C125.52 256.136 122.712 256 120 256C53.832 256 0 309.832 0 376C0 442.168 53.832 496 120 496C186.168 496 240 442.168 240 376C240 373.288 239.864 370.48 239.632 367.576C242.408 367.768 245.176 368 248 368C268.104 368 287.032 362.976 303.688 354.2L321.72 412.816C315.856 417.2 312 424.128 312 432C312 445.232 322.768 456 336 456C349.232 456 360 445.232 360 432C360 419.112 349.768 408.648 337.016 408.104L317.744 345.464C320.912 343.192 323.96 340.768 326.888 338.2L396.536 407.848C393.72 412.608 392 418.08 392 424C392 441.648 406.352 456 424 456C441.648 456 456 441.648 456 424C456 406.352 441.648 392 424 392C418.08 392 412.608 393.72 407.848 396.536L338.2 326.888C340.768 323.96 343.184 320.912 345.464 317.744L408.104 337.016C408.648 349.768 419.112 360 432 360C445.232 360 456 349.232 456 336C456 322.768 445.232 312 432 312C424.128 312 417.192 315.856 412.816 321.728L354.2 303.688C362.976 287.032 368 268.104 368 248C368 245.176 367.768 242.408 367.576 239.624C370.48 239.864 373.288 240 376 240C442.168 240 496 186.168 496 120V120ZM152 64C152 59.592 155.584 56 160 56C164.416 56 168 59.592 168 64C168 68.408 164.416 72 160 72C155.584 72 152 68.408 152 64ZM64 168C59.584 168 56 164.408 56 160C56 155.592 59.584 152 64 152C68.416 152 72 155.592 72 160C72 164.408 68.416 168 64 168ZM344 432C344 436.408 340.416 440 336 440C331.584 440 328 436.408 328 432C328 427.592 331.584 424 336 424C340.416 424 344 427.592 344 432ZM432 328C436.416 328 440 331.592 440 336C440 340.408 436.416 344 432 344C427.584 344 424 340.408 424 336C424 331.592 427.584 328 432 328ZM72 88C63.176 88 56 80.824 56 72C56 63.176 63.176 56 72 56C80.824 56 88 63.176 88 72C88 80.824 80.824 88 72 88ZM224 376C224 433.344 177.344 480 120 480C62.656 480 16 433.344 16 376C16 318.656 62.656 272 120 272C123.288 272 126.856 272.28 130.584 272.704C131.816 278.552 133.576 284.192 135.624 289.696C110.552 285.296 84.016 291.736 64.256 307.928L74.4 320.304C93.696 304.48 120.864 299.896 144.536 308.488C154.968 326.264 169.816 341.104 187.6 351.52C190.472 359.432 192 367.64 192 376C192 392.592 186.208 408.792 175.696 421.608L188.072 431.76C200.92 416.088 208 396.288 208 376C208 370.768 207.488 365.584 206.56 360.472C211.984 362.48 217.536 364.208 223.296 365.416C223.712 369.144 224 372.704 224 376ZM248 352C190.656 352 144 305.344 144 248C144 190.656 190.656 144 248 144C305.344 144 352 190.656 352 248C352 305.344 305.344 352 248 352ZM424 408C432.824 408 440 415.176 440 424C440 432.824 432.824 440 424 440C415.176 440 408 432.824 408 424C408 415.176 415.176 408 424 408ZM360.472 206.56C365.584 207.488 370.768 208 376 208C396.28 208 416.08 200.92 431.752 188.072L421.608 175.696C402.312 191.512 375.144 196.104 351.472 187.512C345.456 177.264 337.984 168.016 329.312 159.992H422.776L433.968 92.824L397.76 103.168L375.968 85.744L354.2 103.16L318.032 92.816L329.216 159.896C322.864 154.04 315.904 148.856 308.408 144.464C305.528 136.568 304 128.36 304 120C304 103.408 309.792 87.208 320.304 74.392L307.928 64.24C295.08 79.912 288 99.712 288 120C288 125.232 288.512 130.416 289.44 135.528C284.016 133.52 278.464 131.792 272.704 130.584C272.288 126.856 272 123.296 272 120C272 62.656 318.656 16 376 16C433.344 16 480 62.656 480 120C480 177.344 433.344 224 376 224C372.712 224 369.144 223.72 365.416 223.296C364.208 217.544 362.48 211.984 360.472 206.56V206.56ZM337.968 115.168L357.752 120.824L375.968 106.24L394.208 120.816L414.032 115.16L409.224 144H342.768L337.968 115.168Z" fill="#182538"/>
<path d="M464 120C464 71.48 424.52 32 376 32C355.72 32 335.92 39.08 320.248 51.928L330.392 64.304C343.208 53.792 359.408 48 376 48C415.704 48 448 80.304 448 120C448 136.592 442.208 152.792 431.696 165.608L444.072 175.76C456.92 160.088 464 140.288 464 120Z" fill="#182538"/>
<path d="M120 445.336L178 368L148 328H92L62 368L120 445.336ZM128 376H152L128 408V376ZM136 360L144 349.336L152 360H136ZM120 354.664L112 344H128L120 354.664ZM104 360H88L96 349.336L104 360ZM112 376V408L88 376H112Z" fill="#182538"/>
</svg>
