<svg width="48" height="48" viewBox="0 0 512 512" fill="none" xmlns="http://www.w3.org/2000/svg">
<path d="M429.236 45H82.7641C76.8107 45.0074 71.1032 47.3757 66.8935 51.5854C62.6838 55.7951 60.3155 61.5026 60.3081 67.456V413.924C60.3161 419.834 62.6516 425.503 66.8088 429.704C70.966 433.904 76.6105 436.299 82.5201 436.368V460C82.5212 461.856 83.259 463.636 84.5715 464.949C85.8841 466.261 87.6639 466.999 89.5201 467H137.148C139.004 466.999 140.784 466.261 142.097 464.949C143.409 463.636 144.147 461.856 144.148 460V436.4H367.852V460C367.853 461.856 368.591 463.636 369.904 464.949C371.216 466.261 372.996 466.999 374.852 467H422.48C424.336 466.999 426.116 466.261 427.429 464.949C428.741 463.636 429.479 461.856 429.48 460V436.368C435.39 436.299 441.034 433.904 445.191 429.704C449.349 425.503 451.684 419.834 451.692 413.924V67.456C451.685 61.5026 449.316 55.7951 445.107 51.5854C440.897 47.3757 435.19 45.0074 429.236 45V45ZM130.148 453H96.5201V436.4H130.148V453ZM381.852 453V436.4H415.48V453.02L381.852 453ZM437.692 413.924C437.69 416.166 436.798 418.316 435.213 419.901C433.628 421.486 431.478 422.378 429.236 422.38H82.7641C80.5221 422.378 78.3725 421.486 76.7871 419.901C75.2018 418.316 74.3102 416.166 74.3081 413.924V67.456C74.3102 65.214 75.2018 63.0644 76.7871 61.479C78.3725 59.8937 80.5221 59.0021 82.7641 59H429.236C431.478 59.0021 433.628 59.8937 435.213 61.479C436.798 63.0644 437.69 65.214 437.692 67.456V413.924Z" fill="black"/>
<path d="M316.824 180.94C316.674 180.734 316.512 180.536 316.34 180.348C316.154 180.178 315.959 180.018 315.756 179.868C299.833 164.161 278.366 155.355 256 155.355C233.634 155.355 212.167 164.161 196.244 179.868C196.041 180.018 195.846 180.178 195.66 180.348C195.488 180.536 195.326 180.734 195.176 180.94C179.465 196.862 170.656 218.331 170.656 240.7C170.656 263.069 179.465 284.538 195.176 300.46C195.322 300.659 195.478 300.85 195.644 301.032C195.824 301.195 196.012 301.349 196.208 301.492C212.132 317.213 233.608 326.028 255.984 326.028C278.36 326.028 299.836 317.213 315.76 301.492C315.956 301.349 316.144 301.195 316.324 301.032C316.49 300.85 316.646 300.659 316.792 300.46C332.503 284.538 341.312 263.069 341.312 240.7C341.312 218.331 332.503 196.862 316.792 180.94H316.824ZM311.12 285.912L298.224 273.016C303.894 265.645 307.521 256.911 308.74 247.692H326.98C325.607 261.725 320.086 275.03 311.12 285.912V285.912ZM185.02 247.692H203.26C204.479 256.911 208.106 265.645 213.776 273.016L200.88 285.912C191.914 275.03 186.393 261.725 185.02 247.692V247.692ZM200.88 195.468L213.776 208.368C208.106 215.739 204.479 224.473 203.26 233.692H185.02C186.394 219.658 191.915 206.352 200.88 195.468V195.468ZM256 279.944C248.236 279.945 240.645 277.643 234.189 273.33C227.733 269.017 222.701 262.886 219.729 255.712C216.757 248.539 215.98 240.646 217.494 233.031C219.009 225.415 222.748 218.42 228.238 212.93C233.728 207.44 240.723 203.701 248.339 202.186C255.954 200.672 263.847 201.449 271.02 204.421C278.194 207.393 284.325 212.425 288.638 218.881C292.951 225.337 295.253 232.928 295.252 240.692C295.24 251.099 291.101 261.076 283.742 268.435C276.384 275.793 266.407 279.932 256 279.944V279.944ZM288.324 198.468C280.953 192.798 272.219 189.171 263 187.952V169.708C277.033 171.085 290.34 176.607 301.224 185.572L288.324 198.468ZM249 187.952C239.781 189.171 231.047 192.798 223.676 198.468L210.776 185.572C221.66 176.607 234.967 171.085 249 169.708V187.952ZM223.672 282.916C231.045 288.583 239.781 292.21 249 293.432V311.672C234.967 310.297 221.66 304.776 210.776 295.812L223.672 282.916ZM263 293.432C272.219 292.21 280.955 288.583 288.328 282.916L301.224 295.812C290.34 304.776 277.033 310.297 263 311.672V293.432ZM308.74 233.692C307.521 224.473 303.894 215.739 298.224 208.368L311.12 195.468C320.085 206.352 325.606 219.658 326.98 233.692H308.74Z" fill="black"/>
<path d="M256 223.828C252.665 223.828 249.404 224.817 246.631 226.67C243.858 228.523 241.696 231.157 240.42 234.239C239.143 237.32 238.809 240.711 239.46 243.982C240.111 247.253 241.717 250.258 244.075 252.617C246.434 254.975 249.439 256.581 252.71 257.232C255.981 257.883 259.372 257.549 262.454 256.272C265.535 254.996 268.169 252.835 270.022 250.061C271.875 247.288 272.864 244.028 272.864 240.692C272.86 236.221 271.082 231.934 267.92 228.772C264.758 225.61 260.471 223.832 256 223.828V223.828ZM256 243.556C255.434 243.556 254.88 243.388 254.409 243.073C253.938 242.759 253.571 242.311 253.354 241.788C253.137 241.265 253.081 240.689 253.191 240.133C253.302 239.578 253.574 239.067 253.975 238.667C254.375 238.266 254.886 237.994 255.441 237.883C255.997 237.773 256.573 237.829 257.096 238.046C257.619 238.263 258.067 238.63 258.381 239.101C258.696 239.572 258.864 240.126 258.864 240.692C258.863 241.451 258.561 242.179 258.024 242.716C257.487 243.253 256.759 243.555 256 243.556V243.556Z" fill="black"/>
<path d="M416 207.668H411V105.356C410.999 103.5 410.261 101.72 408.949 100.407C407.636 99.0949 405.856 98.357 404 98.356H108C106.144 98.357 104.364 99.0949 103.051 100.407C101.739 101.72 101.001 103.5 101 105.356V129.28C96.7086 130.744 92.9818 133.512 90.3405 137.198C87.6992 140.883 86.2754 145.302 86.2681 149.836V179.704C86.2754 184.238 87.6992 188.657 90.3405 192.342C92.9818 196.028 96.7086 198.796 101 200.26V281.124C96.7089 282.587 92.9822 285.355 90.3409 289.039C87.6995 292.724 86.2756 297.142 86.2681 301.676V331.544C86.2754 336.078 87.6992 340.497 90.3405 344.182C92.9818 347.868 96.7086 350.636 101 352.1V376.024C101.001 377.88 101.739 379.66 103.051 380.973C104.364 382.285 106.144 383.023 108 383.024H404C405.856 383.023 407.636 382.285 408.949 380.973C410.261 379.66 410.999 377.88 411 376.024V273.712H416C417.856 273.711 419.636 272.973 420.949 271.661C422.261 270.348 422.999 268.568 423 266.712V214.668C422.999 212.812 422.261 211.032 420.949 209.719C419.636 208.407 417.856 207.669 416 207.668V207.668ZM409 259.712H389.168V221.668H408.984L409 259.712ZM100.284 149.836C100.284 147.785 101.099 145.819 102.549 144.369C103.999 142.919 105.965 142.104 108.016 142.104C110.067 142.104 112.033 142.919 113.483 144.369C114.933 145.819 115.748 147.785 115.748 149.836V179.704C115.747 181.752 114.934 183.716 113.486 185.166C112.039 186.615 110.076 187.432 108.028 187.436H108C105.951 187.432 103.988 186.615 102.54 185.166C101.092 183.717 100.278 181.753 100.276 179.704L100.284 149.836ZM100.284 301.676C100.284 299.625 101.099 297.659 102.549 296.209C103.999 294.759 105.965 293.944 108.016 293.944C110.067 293.944 112.033 294.759 113.483 296.209C114.933 297.659 115.748 299.625 115.748 301.676V331.544C115.748 333.595 114.933 335.561 113.483 337.011C112.033 338.461 110.067 339.276 108.016 339.276C105.965 339.276 103.999 338.461 102.549 337.011C101.099 335.561 100.284 333.595 100.284 331.544V301.676ZM396.984 369.024H115.016V352.1C119.308 350.636 123.034 347.868 125.676 344.182C128.317 340.497 129.741 336.078 129.748 331.544V301.676C129.74 297.142 128.316 292.725 125.675 289.04C123.033 285.355 119.307 282.588 115.016 281.124V200.26C119.308 198.796 123.034 196.028 125.676 192.342C128.317 188.657 129.741 184.238 129.748 179.704V149.836C129.741 145.302 128.317 140.884 125.676 137.199C123.035 133.514 119.308 130.747 115.016 129.284V112.356H396.984V207.668H382.184C380.328 207.668 378.547 208.405 377.234 209.718C375.922 211.031 375.184 212.811 375.184 214.668V266.712C375.184 268.568 375.922 270.349 377.234 271.662C378.547 272.974 380.328 273.712 382.184 273.712H396.984V369.024Z" fill="black"/>
</svg>
