<svg width="48" height="48" viewBox="0 0 512 512" fill="none" xmlns="http://www.w3.org/2000/svg">
<g clip-path="url(#clip0)">
<path d="M411.093 152.411L441.749 121.755L411.584 91.5787L378.789 124.373C348.83 103.142 313.87 90.0572 277.333 86.4V42.6667H320V0H192V42.6667H234.667V86.4C198.13 90.0572 163.17 103.142 133.211 124.373L100.416 91.5787L70.2506 121.755L100.907 152.411C72.2911 182.708 53.1763 220.724 45.9228 261.763C38.6693 302.801 43.5947 345.066 60.0909 383.337C76.587 421.608 103.931 454.209 138.747 477.115C173.563 500.02 214.325 512.227 256 512.227C297.675 512.227 338.437 500.02 373.253 477.115C408.069 454.209 435.413 421.608 451.909 383.337C468.405 345.066 473.331 302.801 466.077 261.763C458.824 220.724 439.709 182.708 411.093 152.411V152.411ZM256 469.333C222.245 469.333 189.249 459.324 161.183 440.571C133.117 421.818 111.242 395.163 98.3245 363.978C85.4072 332.793 82.0274 298.477 88.6126 265.371C95.1978 232.265 111.452 201.855 135.32 177.987C159.189 154.119 189.598 137.865 222.705 131.279C255.811 124.694 290.126 128.074 321.311 140.991C352.497 153.909 379.151 175.783 397.904 203.849C416.657 231.915 426.667 264.912 426.667 298.667C426.616 343.915 408.619 387.295 376.623 419.29C344.628 451.285 301.248 469.283 256 469.333V469.333Z" fill="black"/>
<path d="M256 170.667V298.667H128C128 323.983 135.507 348.73 149.572 369.78C163.637 390.829 183.628 407.235 207.017 416.923C230.405 426.611 256.142 429.146 280.972 424.207C305.801 419.268 328.609 407.077 346.51 389.176C364.411 371.275 376.602 348.468 381.541 323.638C386.479 298.808 383.945 273.072 374.257 249.683C364.569 226.294 348.162 206.303 327.113 192.238C306.064 178.174 281.316 170.667 256 170.667V170.667Z" fill="black"/>
</g>
<defs>
<clipPath id="clip0">
<rect width="512" height="512" fill="black"/>
</clipPath>
</defs>
</svg>
