<svg width="160" height="40" viewBox="0 0 240 60" fill="none" xmlns="http://www.w3.org/2000/svg">
<path d="M12.7521 14.9277C15.2626 14.9277 17.456 15.4959 19.3323 16.6322C21.235 17.7686 22.7016 19.4202 23.7323 21.5872C24.7893 23.7277 25.3179 26.2911 25.3179 29.2773C25.3179 32.1841 24.7761 34.7606 23.6926 37.007C22.6356 39.2533 21.1425 40.9975 19.2134 42.2394C17.3107 43.4813 15.1437 44.1025 12.7125 44.1025C10.202 44.1025 7.99536 43.5344 6.09266 42.398C4.2164 41.2615 2.74973 39.6232 1.69267 37.4827C0.662043 35.3156 0.146729 32.739 0.146729 29.7529C0.146729 26.846 0.675255 24.2695 1.73231 22.0232C2.81578 19.777 4.30888 18.0328 6.21158 16.7908C8.14072 15.5488 10.3209 14.9277 12.7521 14.9277ZM12.5936 15.6412C10.9023 15.6412 9.40918 16.2358 8.11428 17.425C6.84582 18.5878 5.85483 20.2262 5.14131 22.3403C4.45424 24.4544 4.11069 26.8724 4.11069 29.5944C4.11069 32.3426 4.49388 34.7606 5.26023 36.8484C6.05302 38.9362 7.11009 40.548 8.4314 41.6844C9.75271 42.8209 11.2326 43.3889 12.871 43.3889C14.5623 43.3889 16.0422 42.8075 17.3107 41.6448C18.6056 40.4556 19.5966 38.8039 20.2836 36.6899C20.9971 34.5758 21.3539 32.1578 21.3539 29.4358C21.3539 26.6875 20.9575 24.2695 20.1647 22.1818C19.3984 20.0941 18.3545 18.4821 17.0332 17.3457C15.7119 16.2094 14.232 15.6412 12.5936 15.6412ZM49.2833 40.2178C49.9176 41.8561 50.8293 42.702 52.0185 42.7547V43.5475C50.9616 43.4682 49.5477 43.4286 47.777 43.4286C45.5044 43.4286 43.8131 43.4682 42.7032 43.5475V42.7547C43.7075 42.702 44.4211 42.583 44.8437 42.398C45.2931 42.1866 45.5176 41.8165 45.5176 41.2881C45.5176 40.8389 45.359 40.2178 45.0419 39.425L42.6239 32.9241H33.0311L31.4059 37.1259C30.8774 38.5529 30.6131 39.6363 30.6131 40.3763C30.6131 41.1957 30.8906 41.7902 31.4455 42.1601C32.027 42.53 32.8991 42.7282 34.0617 42.7547V43.5475C32.5554 43.4682 31.036 43.4286 29.5032 43.4286C28.314 43.4286 27.3231 43.4682 26.5303 43.5475V42.7547C27.8516 42.4376 28.8955 41.2881 29.6617 39.3061L38.977 15.2845H39.6113L49.2833 40.2178ZM42.3068 32.1313L37.8671 20.2791L33.3482 32.1313H42.3068ZM83.863 16.2755C82.9116 16.3283 82.2112 16.434 81.7621 16.5926C81.3392 16.7512 81.0486 17.0551 80.89 17.5043C80.7315 17.9535 80.6522 18.6803 80.6522 19.6845V39.3457C80.6522 40.3498 80.7315 41.0767 80.89 41.5259C81.0486 41.975 81.3392 42.279 81.7621 42.4376C82.2112 42.5962 82.9116 42.702 83.863 42.7547V43.5475C82.6473 43.4682 80.9693 43.4286 78.8288 43.4286C76.5562 43.4286 74.8648 43.4682 73.7549 43.5475V42.7547C74.7063 42.702 75.3932 42.5962 75.8162 42.4376C76.2653 42.279 76.5693 41.975 76.7279 41.5259C76.8864 41.0767 76.9657 40.3498 76.9657 39.3457V18.0989L67.4126 43.7457H66.7783L56.7892 18.0196V38.9493C56.7892 39.9799 56.8684 40.7462 57.027 41.2484C57.2121 41.7506 57.5554 42.1205 58.0576 42.3583C58.5598 42.5696 59.3392 42.702 60.3964 42.7547V43.5475C59.445 43.4682 58.0973 43.4286 56.3531 43.4286C54.7675 43.4286 53.5387 43.4682 52.6667 43.5475V42.7547C53.5915 42.702 54.2787 42.5696 54.7279 42.3583C55.1771 42.1205 55.4811 41.7506 55.6396 41.2484C55.7982 40.72 55.8775 39.9534 55.8775 38.9493V19.6845C55.8775 18.6803 55.7982 17.9535 55.6396 17.5043C55.4811 17.0551 55.1771 16.7512 54.7279 16.5926C54.305 16.434 53.618 16.3283 52.6667 16.2755V15.4827C53.5387 15.562 54.7675 15.6016 56.3531 15.6016C57.7274 15.6016 58.8504 15.562 59.7225 15.4827L68.4432 38.434L76.9657 15.6016H78.8288C80.9693 15.6016 82.6473 15.562 83.863 15.4827V16.2755Z" fill="white"/>
<path d="M109.509 3.19775C110.428 3.19775 111.232 3.40581 111.919 3.82194C112.615 4.23807 113.152 4.84288 113.53 5.63643C113.917 6.42028 114.111 7.35899 114.111 8.45251C114.111 9.517 113.912 10.4605 113.515 11.2831C113.128 12.1057 112.582 12.7444 111.875 13.1992C111.178 13.654 110.385 13.8815 109.494 13.8815C108.575 13.8815 107.767 13.6734 107.07 13.2573C106.383 12.8411 105.846 12.2412 105.459 11.4573C105.082 10.6638 104.893 9.72022 104.893 8.6267C104.893 7.56221 105.086 6.61868 105.474 5.7961C105.87 4.97352 106.417 4.33482 107.114 3.88C107.82 3.42518 108.619 3.19775 109.509 3.19775ZM109.451 3.45904C108.831 3.45904 108.285 3.67678 107.811 4.11226C107.346 4.53805 106.983 5.13806 106.722 5.91223C106.47 6.6864 106.345 7.57187 106.345 8.56864C106.345 9.57506 106.485 10.4605 106.765 11.225C107.056 11.9896 107.443 12.5799 107.927 12.996C108.411 13.4121 108.953 13.6202 109.553 13.6202C110.172 13.6202 110.714 13.4073 111.178 12.9815C111.653 12.546 112.015 11.9412 112.267 11.167C112.528 10.3928 112.659 9.50734 112.659 8.51057C112.659 7.50415 112.514 6.61868 112.223 5.85416C111.943 5.08965 111.56 4.49936 111.077 4.08322C110.593 3.66709 110.051 3.45904 109.451 3.45904ZM131.461 9.52669V12.1395C131.461 12.5073 131.499 12.7734 131.577 12.9379C131.654 13.1024 131.789 13.2137 131.983 13.2718C132.177 13.3299 132.491 13.3686 132.927 13.3879V13.6782C132.423 13.6492 131.712 13.6347 130.793 13.6347C129.96 13.6347 129.341 13.6492 128.935 13.6782V13.3879C129.283 13.3686 129.535 13.3299 129.69 13.2718C129.854 13.2137 129.966 13.1024 130.024 12.9379C130.082 12.7734 130.111 12.5073 130.111 12.1395V4.93966C130.111 4.57194 130.082 4.30579 130.024 4.14129C129.966 3.97678 129.854 3.86549 129.69 3.80742C129.535 3.74936 129.283 3.71064 128.935 3.69129V3.40098C129.341 3.43001 129.931 3.44452 130.706 3.44452L132.274 3.43001C132.457 3.42032 132.665 3.41549 132.898 3.41549C134.03 3.41549 134.896 3.67678 135.496 4.19935C136.096 4.71224 136.396 5.40417 136.396 6.27513C136.396 6.80738 136.275 7.32027 136.033 7.81381C135.801 8.29766 135.399 8.70411 134.828 9.03315C134.267 9.36218 133.517 9.52669 132.578 9.52669H131.461ZM132.535 3.69129C132.235 3.69129 132.007 3.72516 131.853 3.79291C131.707 3.86066 131.606 3.98161 131.548 4.1558C131.49 4.32999 131.461 4.59128 131.461 4.93966V9.23637H132.433C133.382 9.23637 134.035 8.98477 134.393 8.48154C134.761 7.96866 134.944 7.28641 134.944 6.4348C134.944 5.4961 134.756 4.80419 134.378 4.35903C134.01 3.91386 133.396 3.69129 132.535 3.69129ZM160.089 11.8202C160.089 12.3718 160.123 12.9912 160.19 13.6782C159.532 13.6492 158.424 13.6347 156.866 13.6347C155.008 13.6347 153.605 13.6492 152.657 13.6782V13.3879C153.005 13.3686 153.257 13.3299 153.411 13.2718C153.576 13.2137 153.687 13.1024 153.745 12.9379C153.803 12.7734 153.832 12.5073 153.832 12.1395V4.93966C153.832 4.57194 153.803 4.30579 153.745 4.14129C153.687 3.97678 153.576 3.86549 153.411 3.80742C153.257 3.74936 153.005 3.71064 152.657 3.69129V3.40098C153.605 3.43001 155.008 3.44452 156.866 3.44452C158.289 3.44452 159.3 3.43001 159.9 3.40098C159.832 4.03968 159.798 4.61063 159.798 5.11385C159.798 5.49127 159.813 5.79127 159.842 6.01384H159.508C159.44 5.38483 159.353 4.92032 159.247 4.62031C159.14 4.31065 158.961 4.08805 158.71 3.95258C158.458 3.80742 158.076 3.73484 157.563 3.73484H156.358C156.01 3.73484 155.753 3.76387 155.589 3.82194C155.434 3.87031 155.328 3.97678 155.27 4.14129C155.211 4.30579 155.182 4.57194 155.182 4.93966V8.36542H156.14C156.479 8.36542 156.74 8.28801 156.924 8.13316C157.108 7.96866 157.229 7.77995 157.287 7.56704C157.355 7.34447 157.408 7.06867 157.447 6.73963L157.49 6.44932H157.824C157.795 6.85576 157.781 7.31058 157.781 7.81381V8.51057C157.781 9.00412 157.81 9.69119 157.868 10.5718H157.534C157.524 10.5041 157.495 10.2718 157.447 9.87507C157.398 9.46862 157.263 9.16379 157.04 8.96057C156.827 8.75734 156.527 8.65573 156.14 8.65573H155.182V12.1395C155.182 12.5073 155.211 12.7734 155.27 12.9379C155.328 13.1024 155.434 13.2137 155.589 13.2718C155.753 13.3202 156.01 13.3444 156.358 13.3444H157.418C158.018 13.3444 158.473 13.267 158.782 13.1121C159.102 12.9476 159.334 12.6912 159.479 12.3428C159.624 11.9847 159.731 11.4621 159.798 10.7751H160.132C160.103 11.0363 160.089 11.3847 160.089 11.8202ZM186.686 3.69129C186.348 3.71064 186.096 3.76387 185.931 3.85097C185.767 3.92838 185.655 4.06388 185.597 4.25741C185.539 4.44129 185.51 4.71709 185.51 5.08482V13.7508H185.176L179.08 4.32999V11.9944C179.08 12.3718 179.109 12.6524 179.167 12.8363C179.235 13.0202 179.361 13.1557 179.544 13.2428C179.728 13.3202 180.014 13.3686 180.401 13.3879V13.6782C180.052 13.6492 179.559 13.6347 178.92 13.6347C178.339 13.6347 177.889 13.6492 177.57 13.6782V13.3879C177.909 13.3686 178.161 13.3202 178.325 13.2428C178.49 13.1557 178.601 13.0202 178.659 12.8363C178.717 12.6428 178.746 12.3621 178.746 11.9944V4.93966C178.746 4.57194 178.717 4.30579 178.659 4.14129C178.601 3.97678 178.49 3.86549 178.325 3.80742C178.17 3.74936 177.919 3.71064 177.57 3.69129V3.40098C177.889 3.43001 178.339 3.44452 178.92 3.44452C179.356 3.44452 179.733 3.43001 180.052 3.40098L185.176 11.2976V5.08482C185.176 4.70741 185.143 4.42678 185.075 4.2429C185.017 4.05902 184.896 3.92838 184.712 3.85097C184.528 3.76387 184.243 3.71064 183.856 3.69129V3.40098C184.204 3.43001 184.697 3.44452 185.336 3.44452C185.917 3.44452 186.367 3.43001 186.686 3.40098V3.69129ZM112.354 31.7204C112.586 32.3203 112.92 32.6301 113.356 32.6494V32.9397C112.969 32.9107 112.451 32.8962 111.802 32.8962C110.97 32.8962 110.351 32.9107 109.944 32.9397V32.6494C110.312 32.6301 110.573 32.5866 110.728 32.5188C110.893 32.4414 110.975 32.3058 110.975 32.1123C110.975 31.9479 110.917 31.7204 110.801 31.4301L109.915 29.0495H106.403L105.807 30.5881C105.614 31.1107 105.517 31.5074 105.517 31.7784C105.517 32.0785 105.619 32.2963 105.822 32.4317C106.035 32.5671 106.354 32.6396 106.78 32.6494V32.9397C106.228 32.9107 105.672 32.8962 105.111 32.8962C104.675 32.8962 104.312 32.9107 104.022 32.9397V32.6494C104.506 32.5333 104.888 32.1123 105.169 31.3865L108.58 22.5899H108.812L112.354 31.7204ZM109.799 28.7591L108.174 24.4189L106.519 28.7591H109.799ZM138.073 32.2139C137.851 32.543 137.629 32.78 137.406 32.9252C137.183 33.0704 136.888 33.1429 136.52 33.1429C136.124 33.1429 135.794 33.0268 135.533 32.7946C135.282 32.5623 135.093 32.1559 134.967 31.5752L134.648 30.1236C134.532 29.6203 134.421 29.2334 134.314 28.9624C134.217 28.6913 134.067 28.4736 133.864 28.3091C133.661 28.1447 133.375 28.0624 133.007 28.0624H131.628V31.401C131.628 31.7687 131.657 32.035 131.716 32.1994C131.774 32.3638 131.88 32.4752 132.035 32.5333C132.2 32.5913 132.456 32.6301 132.804 32.6494V32.9397C132.359 32.9107 131.745 32.8962 130.961 32.8962C130.129 32.8962 129.509 32.9107 129.103 32.9397V32.6494C129.451 32.6301 129.703 32.5913 129.857 32.5333C130.022 32.4752 130.133 32.3638 130.191 32.1994C130.249 32.035 130.278 31.7687 130.278 31.401V24.2011C130.278 23.8334 130.249 23.5673 130.191 23.4028C130.133 23.2383 130.022 23.127 129.857 23.0689C129.703 23.0108 129.451 22.9721 129.103 22.9528V22.6625C129.509 22.6915 130.1 22.706 130.874 22.706L132.441 22.6915C132.625 22.6818 132.833 22.677 133.066 22.677C134.188 22.677 135.049 22.9141 135.649 23.3883C136.259 23.8528 136.564 24.4576 136.564 25.2027C136.564 25.5802 136.472 25.9624 136.288 26.3495C136.114 26.7269 135.814 27.0705 135.388 27.3801C134.972 27.6801 134.425 27.8834 133.748 27.9898L133.922 28.0188C134.561 28.1252 135.025 28.3189 135.315 28.5995C135.606 28.88 135.819 29.3253 135.954 29.9349L136.317 31.4156C136.414 31.8608 136.516 32.1704 136.622 32.3446C136.729 32.5188 136.874 32.6059 137.057 32.6059C137.222 32.6059 137.357 32.5623 137.464 32.4752C137.58 32.3881 137.711 32.2477 137.856 32.0543L138.073 32.2139ZM132.703 22.9528C132.403 22.9528 132.175 22.9866 132.02 23.0544C131.875 23.1221 131.774 23.2431 131.716 23.4173C131.657 23.5915 131.628 23.8528 131.628 24.2011V27.7721H132.601C133.559 27.7721 134.217 27.5592 134.575 27.1334C134.933 26.7076 135.112 26.1172 135.112 25.3624C135.112 24.5689 134.924 23.9689 134.546 23.5624C134.169 23.156 133.554 22.9528 132.703 22.9528ZM160.793 22.6625C160.725 23.3495 160.692 23.9689 160.692 24.5205C160.692 25.0044 160.706 25.4011 160.735 25.7108H160.401C160.324 24.9657 160.227 24.4141 160.111 24.056C159.995 23.6883 159.792 23.4221 159.501 23.2576C159.211 23.0834 158.766 22.9963 158.166 22.9963H157.382V31.2559C157.382 31.6623 157.42 31.9574 157.498 32.1413C157.575 32.3253 157.711 32.4509 157.904 32.5188C158.098 32.5866 158.413 32.6301 158.848 32.6494V32.9397C158.345 32.9107 157.633 32.8962 156.714 32.8962C155.746 32.8962 155.03 32.9107 154.566 32.9397V32.6494C155.001 32.6301 155.316 32.5866 155.509 32.5188C155.703 32.4509 155.838 32.3253 155.916 32.1413C155.993 31.9574 156.032 31.6623 156.032 31.2559V22.9963H155.248C154.648 22.9963 154.203 23.0834 153.913 23.2576C153.622 23.4221 153.419 23.6883 153.303 24.056C153.187 24.4141 153.09 24.9657 153.013 25.7108H152.679C152.708 25.4011 152.722 25.0044 152.722 24.5205C152.722 23.9689 152.688 23.3495 152.621 22.6625C153.424 22.6915 154.788 22.706 156.714 22.706C158.63 22.706 159.99 22.6915 160.793 22.6625ZM116.157 42.2143C115.809 42.2335 115.552 42.2723 115.388 42.3304C115.233 42.3885 115.127 42.4998 115.069 42.6643C115.011 42.8287 114.981 43.095 114.981 43.4626V50.6625C114.981 51.0302 115.011 51.2965 115.069 51.4609C115.127 51.6253 115.233 51.7367 115.388 51.7948C115.552 51.8528 115.809 51.8916 116.157 51.9109V52.2012C115.712 52.1722 115.098 52.1577 114.314 52.1577C113.482 52.1577 112.862 52.1722 112.456 52.2012V51.9109C112.804 51.8916 113.056 51.8528 113.211 51.7948C113.375 51.7367 113.486 51.6253 113.544 51.4609C113.602 51.2965 113.632 51.0302 113.632 50.6625V42.882L110.133 52.2738H109.901L106.243 42.853V50.5174C106.243 50.8948 106.272 51.1753 106.33 51.3593C106.398 51.5432 106.523 51.6786 106.707 51.7657C106.891 51.8431 107.177 51.8916 107.564 51.9109V52.2012C107.215 52.1722 106.722 52.1577 106.083 52.1577C105.503 52.1577 105.053 52.1722 104.733 52.2012V51.9109C105.072 51.8916 105.324 51.8431 105.488 51.7657C105.653 51.6786 105.764 51.5432 105.822 51.3593C105.88 51.1658 105.909 50.885 105.909 50.5174V43.4626C105.909 43.095 105.88 42.8287 105.822 42.6643C105.764 42.4998 105.653 42.3885 105.488 42.3304C105.333 42.2723 105.082 42.2335 104.733 42.2143V41.924C105.053 41.953 105.503 41.9675 106.083 41.9675C106.587 41.9675 106.998 41.953 107.317 41.924L110.511 50.3287L113.632 41.9675H114.314C115.098 41.9675 115.712 41.953 116.157 41.924V42.2143ZM137.438 50.9819C137.67 51.5818 138.004 51.8916 138.439 51.9109V52.2012C138.052 52.1722 137.535 52.1577 136.886 52.1577C136.054 52.1577 135.435 52.1722 135.028 52.2012V51.9109C135.396 51.8916 135.657 51.8481 135.812 51.7803C135.976 51.7029 136.059 51.5673 136.059 51.3738C136.059 51.2094 136.001 50.9819 135.885 50.6916L134.999 48.3109H131.486L130.891 49.8496C130.698 50.3722 130.601 50.7689 130.601 51.0399C130.601 51.34 130.702 51.5578 130.906 51.6932C131.119 51.8285 131.438 51.9011 131.864 51.9109V52.2012C131.312 52.1722 130.756 52.1577 130.194 52.1577C129.759 52.1577 129.396 52.1722 129.106 52.2012V51.9109C129.59 51.7948 129.972 51.3738 130.252 50.648L133.664 41.8514H133.896L137.438 50.9819ZM134.883 48.0206L133.257 43.6804L131.602 48.0206H134.883ZM161.761 51.4754C161.539 51.8045 161.316 52.0415 161.094 52.1867C160.871 52.3319 160.576 52.4044 160.208 52.4044C159.812 52.4044 159.482 52.2883 159.221 52.056C158.97 51.8238 158.781 51.4174 158.655 50.8367L158.336 49.3851C158.22 48.8818 158.108 48.4949 158.002 48.2239C157.905 47.9528 157.755 47.7351 157.552 47.5706C157.349 47.4062 157.063 47.3239 156.695 47.3239H155.316V50.6625C155.316 51.0302 155.345 51.2965 155.404 51.4609C155.462 51.6253 155.568 51.7367 155.723 51.7948C155.887 51.8528 156.144 51.8916 156.492 51.9109V52.2012C156.047 52.1722 155.433 52.1577 154.649 52.1577C153.817 52.1577 153.197 52.1722 152.791 52.2012V51.9109C153.139 51.8916 153.391 51.8528 153.545 51.7948C153.71 51.7367 153.821 51.6253 153.879 51.4609C153.937 51.2965 153.966 51.0302 153.966 50.6625V43.4626C153.966 43.095 153.937 42.8287 153.879 42.6643C153.821 42.4998 153.71 42.3885 153.545 42.3304C153.391 42.2723 153.139 42.2335 152.791 42.2143V41.924C153.197 41.953 153.788 41.9675 154.562 41.9675L156.129 41.953C156.313 41.9432 156.521 41.9385 156.753 41.9385C157.876 41.9385 158.737 42.1755 159.337 42.6497C159.947 43.1143 160.252 43.7192 160.252 44.4642C160.252 44.8416 160.16 45.2238 159.976 45.611C159.802 45.9884 159.502 46.332 159.076 46.6416C158.66 46.9417 158.113 47.1449 157.436 47.2513L157.61 47.2803C158.249 47.3867 158.713 47.5804 159.003 47.861C159.294 48.1415 159.507 48.5867 159.642 49.1964L160.005 50.677C160.102 51.1223 160.204 51.4319 160.31 51.6061C160.416 51.7802 160.561 51.8673 160.745 51.8673C160.91 51.8673 161.045 51.8238 161.152 51.7367C161.268 51.6496 161.399 51.5092 161.544 51.3157L161.761 51.4754ZM156.391 42.2143C156.091 42.2143 155.863 42.248 155.708 42.3159C155.563 42.3837 155.462 42.5046 155.404 42.6788C155.345 42.853 155.316 43.1143 155.316 43.4626V47.0336H156.289C157.247 47.0336 157.905 46.8206 158.263 46.3948C158.621 45.9691 158.8 45.3787 158.8 44.6239C158.8 43.8303 158.612 43.2304 158.234 42.8239C157.857 42.4175 157.242 42.2143 156.391 42.2143ZM185.319 51.0254C185.484 51.2674 185.663 51.4609 185.856 51.6061C186.06 51.7414 186.306 51.8431 186.597 51.9109V52.2012C186.132 52.1722 185.552 52.1577 184.855 52.1577C184.332 52.1577 183.834 52.1722 183.36 52.2012V51.9109C183.592 51.9011 183.761 51.8721 183.868 51.8238C183.974 51.7755 184.027 51.7029 184.027 51.6061C184.027 51.5092 183.979 51.3931 183.882 51.2577L181.763 48.0642C181.482 47.6385 181.245 47.3627 181.052 47.2368C180.858 47.1014 180.587 47.0238 180.239 47.0045V50.6625C180.239 51.0302 180.268 51.2965 180.326 51.4609C180.384 51.6253 180.49 51.7367 180.645 51.7948C180.81 51.8528 181.066 51.8916 181.415 51.9109V52.2012C180.969 52.1722 180.355 52.1577 179.571 52.1577C178.739 52.1577 178.12 52.1722 177.713 52.2012V51.9109C178.061 51.8916 178.313 51.8528 178.468 51.7948C178.632 51.7367 178.744 51.6253 178.802 51.4609C178.86 51.2965 178.889 51.0302 178.889 50.6625V43.4626C178.889 43.095 178.86 42.8287 178.802 42.6643C178.744 42.4998 178.632 42.3885 178.468 42.3304C178.313 42.2723 178.061 42.2335 177.713 42.2143V41.924C178.12 41.953 178.739 41.9675 179.571 41.9675C180.345 41.9675 180.96 41.953 181.415 41.924V42.2143C181.066 42.2335 180.81 42.2723 180.645 42.3304C180.49 42.3885 180.384 42.4998 180.326 42.6643C180.268 42.8287 180.239 43.095 180.239 43.4626V46.7142C180.945 46.6852 181.497 46.4141 181.894 45.9013L183.287 44.1304C183.781 43.5207 184.027 43.0562 184.027 42.7368C184.027 42.3982 183.727 42.224 183.127 42.2143V41.924C183.679 41.953 184.235 41.9675 184.797 41.9675C185.329 41.9675 185.74 41.953 186.031 41.924V42.2143C185.711 42.2626 185.411 42.3692 185.131 42.5336C184.85 42.6885 184.579 42.9353 184.318 43.2739L181.952 46.3078L185.319 51.0254ZM209.608 50.3432C209.608 50.8948 209.642 51.5142 209.71 52.2012C209.052 52.1722 207.944 52.1577 206.386 52.1577C204.528 52.1577 203.125 52.1722 202.176 52.2012V51.9109C202.525 51.8916 202.776 51.8528 202.931 51.7948C203.096 51.7367 203.207 51.6253 203.265 51.4609C203.323 51.2965 203.352 51.0302 203.352 50.6625V43.4626C203.352 43.095 203.323 42.8287 203.265 42.6643C203.207 42.4998 203.096 42.3885 202.931 42.3304C202.776 42.2723 202.525 42.2335 202.176 42.2143V41.924C203.125 41.953 204.528 41.9675 206.386 41.9675C207.808 41.9675 208.82 41.953 209.42 41.924C209.352 42.5627 209.318 43.1335 209.318 43.6368C209.318 44.0142 209.333 44.3143 209.362 44.5368H209.028C208.96 43.9079 208.873 43.4434 208.766 43.1433C208.66 42.8337 208.481 42.6109 208.229 42.4756C207.978 42.3304 207.595 42.2578 207.083 42.2578H205.878C205.529 42.2578 205.273 42.2868 205.108 42.3449C204.954 42.3932 204.847 42.4998 204.789 42.6643C204.731 42.8287 204.702 43.095 204.702 43.4626V46.8884H205.66C205.999 46.8884 206.26 46.8111 206.444 46.6561C206.628 46.4917 206.749 46.303 206.807 46.09C206.875 45.8675 206.928 45.5917 206.967 45.2626L207.01 44.9723H207.344C207.315 45.3787 207.3 45.8335 207.3 46.3368V47.0336C207.3 47.5271 207.329 48.2141 207.387 49.0948H207.054C207.044 49.027 207.015 48.7947 206.967 48.398C206.918 47.9916 206.783 47.6868 206.56 47.4835C206.347 47.2803 206.047 47.1787 205.66 47.1787H204.702V50.6625C204.702 51.0302 204.731 51.2965 204.789 51.4609C204.847 51.6253 204.954 51.7367 205.108 51.7948C205.273 51.8431 205.529 51.8673 205.878 51.8673H206.937C207.537 51.8673 207.992 51.79 208.302 51.6351C208.621 51.4707 208.854 51.2141 208.999 50.8657C209.144 50.5076 209.25 49.985 209.318 49.298H209.652C209.623 49.5593 209.608 49.9077 209.608 50.3432ZM233.957 41.924C233.889 42.6109 233.856 43.2304 233.856 43.782C233.856 44.2658 233.87 44.6627 233.899 44.9723H233.565C233.488 44.2272 233.391 43.6756 233.275 43.3175C233.159 42.9498 232.956 42.6835 232.665 42.5191C232.375 42.3449 231.93 42.2578 231.33 42.2578H230.546V50.5174C230.546 50.9238 230.584 51.2189 230.662 51.4028C230.739 51.5868 230.875 51.7124 231.068 51.7803C231.262 51.8481 231.577 51.8916 232.012 51.9109V52.2012C231.509 52.1722 230.797 52.1577 229.878 52.1577C228.91 52.1577 228.194 52.1722 227.73 52.2012V51.9109C228.165 51.8916 228.48 51.8481 228.673 51.7803C228.867 51.7124 229.002 51.5868 229.08 51.4028C229.157 51.2189 229.196 50.9238 229.196 50.5174V42.2578H228.412C227.812 42.2578 227.367 42.3449 227.077 42.5191C226.786 42.6835 226.583 42.9498 226.467 43.3175C226.351 43.6756 226.254 44.2272 226.177 44.9723H225.843C225.872 44.6627 225.886 44.2658 225.886 43.782C225.886 43.2304 225.852 42.6109 225.785 41.924C226.588 41.953 227.952 41.9675 229.878 41.9675C231.794 41.9675 233.154 41.953 233.957 41.924Z" fill="white"/>
<path d="M94.9116 0V29.8693V59.7385" stroke="white"/>
</svg>
