<svg width="48" height="48" viewBox="0 0 512 512" fill="none" xmlns="http://www.w3.org/2000/svg">
<path d="M456 432V368C456 364.448 453.656 361.32 450.24 360.32L264 306V208H320C324.424 208 328 204.416 328 200V72C328 69.88 327.16 67.84 325.656 66.344L277.656 18.344C276.16 16.84 274.128 16 272 16H192C187.576 16 184 19.584 184 24V200C184 204.416 187.576 208 192 208H248V306L61.76 360.32C58.344 361.32 56 364.448 56 368V432C56 435.552 58.344 438.68 61.76 439.68L253.76 495.68C254.496 495.896 255.24 496 256 496C256.76 496 257.504 495.896 258.24 495.68L450.24 439.68C453.656 438.68 456 435.552 456 432ZM280 43.312L300.688 64H280V43.312ZM200 32H264V72C264 76.416 267.576 80 272 80H312V192H200V32ZM248 322.664V364.688L229.656 346.344L218.344 357.656L250.344 389.656C251.904 391.216 253.952 392 256 392C258.048 392 260.096 391.216 261.656 389.656L293.656 357.656L282.344 346.344L264 364.688V322.664L419.432 368L256 415.664L92.568 368L248 322.664ZM72 378.664L248 430V477.336L72 426V378.664ZM264 477.336V430L440 378.664V426L264 477.336Z" fill="white"/>
<path d="M24 208H80C80 230.056 97.944 248 120 248H144C157.232 248 168 258.768 168 272V284.688L149.656 266.344L138.344 277.656L170.344 309.656C171.904 311.216 173.952 312 176 312C178.048 312 180.096 311.216 181.656 309.656L213.656 277.656L202.344 266.344L184 284.688V272C184 249.944 166.056 232 144 232H120C106.768 232 96 221.232 96 208H152C156.424 208 160 204.416 160 200V136V72C160 69.88 159.16 67.84 157.656 66.344L109.656 18.344C108.16 16.84 106.128 16 104 16H24C19.576 16 16 19.584 16 24V112V200C16 204.416 19.576 208 24 208ZM112 43.312L132.688 64H112V43.312ZM32 32H96V72C96 76.416 99.576 80 104 80H144V136V192H32V112V32Z" fill="white"/>
<path d="M496 200V72C496 69.88 495.16 67.84 493.656 66.344L445.656 18.344C444.16 16.84 442.128 16 440 16H360C355.576 16 352 19.584 352 24V200C352 204.416 355.576 208 360 208H416C416 221.232 405.232 232 392 232H368C345.944 232 328 249.944 328 272V284.688L309.656 266.344L298.344 277.656L330.344 309.656C331.904 311.216 333.952 312 336 312C338.048 312 340.096 311.216 341.656 309.656L373.656 277.656L362.344 266.344L344 284.688V272C344 258.768 354.768 248 368 248H392C414.056 248 432 230.056 432 208H488C492.424 208 496 204.416 496 200ZM448 43.312L468.688 64H448V43.312ZM368 192V32H432V72C432 76.416 435.576 80 440 80H480V192H368Z" fill="white"/>
<rect x="16" y="14" width="145" height="195" rx="2" fill="white"/>
<rect x="183" y="14" width="145" height="195" rx="2" fill="white"/>
<rect x="351" y="14" width="145" height="195" rx="2" fill="white"/>
</svg>
